<svg width="28" height="27" viewBox="0 0 28 27" fill="none" xmlns="http://www.w3.org/2000/svg">
<g clip-path="url(#clip0_211_28)">
<rect width="28" height="27" fill="white"/>
<path d="M13.8292 1.16026e-06C6.18853 -0.0030973 0 6.20002 0 13.8563C0 19.9108 3.87131 25.0573 9.26271 26.9473C9.98878 27.1301 9.87755 26.6127 9.87755 26.2594V23.8582C5.68493 24.3509 5.51499 21.5684 5.23384 21.1036C4.66535 20.1307 3.32135 19.8828 3.72301 19.4181C4.6777 18.9254 5.65094 19.542 6.77865 21.2121C7.59431 22.4236 9.18548 22.2191 9.99186 22.0176C10.168 21.2895 10.5449 20.6389 11.064 20.1338C6.71995 19.353 4.90942 16.6945 4.90942 13.5341C4.90942 12.0003 5.41303 10.5905 6.40171 9.45341C5.77143 7.57884 6.46042 5.97384 6.55311 5.73525C8.34819 5.57414 10.2143 7.02421 10.3595 7.13885C11.3791 6.8631 12.5439 6.71747 13.8477 6.71747C15.1577 6.71747 16.3256 6.8693 17.3545 7.14815C17.7035 6.88168 19.4338 5.6361 21.1022 5.78793C21.1918 6.02651 21.8653 7.59433 21.2721 9.44411C22.2731 10.5843 22.783 12.0066 22.783 13.5434C22.783 16.71 20.96 19.3716 16.6037 20.1401C16.9768 20.508 17.2731 20.9469 17.4752 21.431C17.6774 21.9151 17.7812 22.4347 17.7809 22.9596V26.4454C17.8055 26.7243 17.7809 27 18.2443 27C23.716 25.1502 27.6553 19.9665 27.6553 13.8594C27.6553 6.20002 21.4637 1.16026e-06 13.8292 1.16026e-06Z" fill="black"/>
</g>
<defs>
<clipPath id="clip0_211_28">
<rect width="28" height="27" fill="white"/>
</clipPath>
</defs>
</svg>
