<svg width="26" height="23" viewBox="0 0 26 23" fill="none" xmlns="http://www.w3.org/2000/svg">
<path d="M23.816 0H2.18402C1.57388 0 1.0582 0.287548 0.634395 0.870762C0.211462 1.45398 0 2.12752 0 2.89144V20.1086C0 20.8725 0.211462 21.546 0.634395 22.1292C1.0582 22.7125 1.57388 23 2.18402 23H23.816C24.4261 23 24.9418 22.7125 25.3656 22.1292C25.7885 21.546 26 20.8725 26 20.1086V2.89144C26 2.12752 25.7885 1.45398 25.3656 0.870762C24.9418 0.287548 24.4261 0 23.816 0ZM21.7854 2.89144L13 9.75045L4.21458 2.89144H21.7854ZM2.18402 20.1086V4.64099L12.441 12.7815C12.5094 12.8636 12.6949 12.9128 13 12.9128C13.3051 12.9128 13.4906 12.8636 13.559 12.7815L23.816 4.64099V20.1086H2.18402Z" fill="black"/>
</svg>
