<svg width="36" height="33" viewBox="0 0 36 33" fill="none" xmlns="http://www.w3.org/2000/svg">
<path d="M32.976 0H3.02402C2.17922 0 1.46519 0.412569 0.878394 1.24935C0.292794 2.08614 0 3.05252 0 4.14859V28.8514C0 29.9475 0.292794 30.9139 0.878394 31.7506C1.46519 32.5874 2.17922 33 3.02402 33H32.976C33.8208 33 34.5348 32.5874 35.1216 31.7506C35.7072 30.9139 36 29.9475 36 28.8514V4.14859C36 3.05252 35.7072 2.08614 35.1216 1.24935C34.5348 0.412569 33.8208 0 32.976 0ZM30.1644 4.14859L18 13.9898L5.83557 4.14859H30.1644ZM3.02402 28.8514V6.65881L17.226 18.3386C17.3208 18.4565 17.5776 18.5271 18 18.5271C18.4224 18.5271 18.6792 18.4565 18.774 18.3386L32.976 6.65881V28.8514H3.02402Z" fill="black"/>
</svg>
