<svg width="35" height="36" viewBox="0 0 35 36" fill="none" xmlns="http://www.w3.org/2000/svg">
<path d="M17.5 0C12.7423 0 12.1497 0.0241055 10.2877 0.108105C8.41866 0.204105 7.15403 0.492047 6.0387 0.948047C4.87086 1.39205 3.81265 2.11202 2.93881 3.02402C2.04515 3.92402 1.35451 5.00392 0.917013 6.21592C0.483012 7.35592 0.193638 8.66408 0.101471 10.5841C0.017471 12.5041 0 13.104 0 18C0 22.896 0.0233043 23.5079 0.101471 25.4159C0.193638 27.3359 0.483012 28.6441 0.917013 29.7841C1.35801 30.9961 2.04748 32.076 2.93881 32.976C3.81031 33.9 4.86853 34.608 6.0387 35.052C7.15403 35.496 8.42449 35.7959 10.2877 35.8919C12.1508 35.9759 12.7423 36 17.5 36C22.2577 36 22.8503 35.9759 24.7123 35.8919C26.5755 35.7959 27.846 35.496 28.9613 35.052C30.1291 34.608 31.1874 33.888 32.0612 32.976C32.956 32.076 33.6467 30.9961 34.083 29.7841C34.5112 28.6441 34.8064 27.3359 34.8985 25.4159C34.9825 23.4959 35 22.896 35 18C35 13.104 34.9767 12.4921 34.8985 10.5841C34.8064 8.66408 34.51 7.35592 34.083 6.21592C33.642 5.00392 32.9525 3.92402 32.0612 3.02402C31.1897 2.10002 30.1315 1.39205 28.9613 0.948047C27.846 0.492047 26.5755 0.204105 24.7123 0.108105C22.8492 0.0241055 22.2577 0 17.5 0ZM17.5 3.23994C22.1725 3.23994 22.7302 3.26405 24.5758 3.34805C26.2792 3.43205 27.2067 3.72007 27.8227 3.97207C28.5845 4.26007 29.274 4.71592 29.8399 5.31592C30.4197 5.89192 30.8653 6.59988 31.1442 7.37988C31.3845 8.01588 31.6692 8.97593 31.7485 10.7279C31.8278 12.6239 31.8512 13.2 31.8512 18C31.8512 22.8 31.8278 23.3761 31.7427 25.2841C31.6505 27.0361 31.3658 27.9841 31.1267 28.6201C30.7953 29.4601 30.4255 30.0601 29.8154 30.6961C29.246 31.2841 28.5577 31.7399 27.7982 32.0399C27.1892 32.2799 26.2488 32.58 24.5397 32.652C22.6823 32.736 22.1363 32.7601 17.4521 32.7601C12.768 32.7601 12.222 32.736 10.3635 32.652C8.66016 32.556 7.72103 32.2679 7.10503 32.0159C6.2732 31.6799 5.70387 31.2961 5.0937 30.6721C4.4777 30.0361 4.08564 29.4361 3.78348 28.5961C3.53848 27.9721 3.25853 27 3.16753 25.236C3.1057 23.352 3.07653 22.764 3.07653 17.976C3.07653 13.176 3.1057 12.5999 3.16753 10.6799C3.25853 8.92788 3.53848 7.95613 3.78348 7.33213C4.08564 6.48013 4.47887 5.89186 5.0937 5.25586C5.7027 4.63186 6.2732 4.22401 7.10503 3.91201C7.72103 3.66001 8.63686 3.37199 10.3472 3.28799C12.2034 3.21599 12.7505 3.19189 17.4277 3.19189L17.5 3.23994ZM17.5 8.76006C16.3205 8.76006 15.1515 8.99987 14.0618 9.46787C12.971 9.92387 11.9805 10.6081 11.1464 11.4721C10.3122 12.3241 9.65068 13.3441 9.19918 14.4601C8.74768 15.5881 8.51551 16.788 8.51551 18C8.51551 19.212 8.74768 20.4119 9.19918 21.5399C9.65068 22.6559 10.3122 23.6759 11.1464 24.5399C11.9805 25.3919 12.971 26.0761 14.0618 26.5441C15.1515 27.0001 16.3205 27.2399 17.5 27.2399C18.6795 27.2399 19.8485 27.0001 20.9382 26.5441C22.029 26.0761 23.0195 25.3919 23.8536 24.5399C24.6878 23.6759 25.3493 22.6559 25.8008 21.5399C26.2523 20.4119 26.4845 19.212 26.4845 18C26.4845 16.788 26.2523 15.5881 25.8008 14.4601C25.3493 13.3441 24.6878 12.3241 23.8536 11.4721C23.0195 10.6081 22.029 9.92387 20.9382 9.46787C19.8485 8.99987 18.6795 8.76006 17.5 8.76006ZM17.5 24C14.2753 24 11.6667 21.324 11.6667 18C11.6667 14.688 14.2753 12 17.5 12C20.7247 12 23.3333 14.688 23.3333 18C23.3333 21.324 20.7247 24 17.5 24ZM28.9461 8.38799C28.9461 8.96399 28.7245 9.51602 28.329 9.92402C27.9346 10.332 27.4003 10.548 26.8427 10.548C26.5673 10.548 26.2943 10.4999 26.04 10.3919C25.7845 10.2839 25.5535 10.116 25.3587 9.92402C25.1639 9.72002 25.0087 9.47992 24.9037 9.21592C24.7975 8.96392 24.7438 8.676 24.7438 8.4C24.7438 8.112 24.7975 7.83607 24.9037 7.57207C25.0087 7.30807 25.1639 7.06797 25.3587 6.86397C25.5535 6.67197 25.7845 6.50409 26.04 6.39609C26.2943 6.28809 26.5673 6.23994 26.8427 6.23994C27.9988 6.23994 28.9461 7.19999 28.9461 8.38799Z" fill="black" fill-opacity="0.9"/>
</svg>
