<svg width="32" height="31" viewBox="0 0 32 31" fill="none" xmlns="http://www.w3.org/2000/svg">
<path fill-rule="evenodd" clip-rule="evenodd" d="M27.3271 4.50677C25.8602 3.06915 24.0975 1.93967 22.1693 1.16381C20.2292 0.387951 18.159 0 16.0651 0C7.28725 0 0.141942 6.89141 0.130112 15.3688C0.130112 18.0729 0.863553 20.7085 2.25948 23.0475L0 31L8.44658 28.8665C10.7771 30.0988 13.4033 30.7376 16.0532 30.7376H16.0651C24.8429 30.7376 31.9882 23.8462 32 15.3688C32 13.3607 31.5859 11.3527 30.7933 9.49293C29.9889 7.62174 28.8177 5.93298 27.3271 4.50677ZM16.0651 28.1476C13.6872 28.1476 11.3567 27.5317 9.32199 26.3679L8.83692 26.0826L3.82104 27.349L5.15783 22.6483L4.85024 22.1575C3.52529 20.1266 2.81554 17.7648 2.82737 15.3688C2.82737 8.31762 8.76599 2.59002 16.0651 2.59002C17.8041 2.59002 19.5312 2.92101 21.1401 3.55995C22.7489 4.2103 24.204 5.14583 25.4343 6.34385C26.6646 7.51904 27.6348 8.93371 28.3091 10.4854C28.9715 12.0371 29.3146 13.6916 29.3027 15.3688C29.3027 22.42 23.3641 28.1476 16.0651 28.1476ZM23.3286 18.575C22.9264 18.381 20.9744 17.4567 20.6077 17.3312C20.241 17.2057 19.9807 17.1375 19.7086 17.5254C19.4484 17.9019 18.6794 18.7688 18.4547 19.0313C18.2181 19.2823 17.9815 19.3166 17.5911 19.1226C17.1889 18.9287 15.9112 18.5294 14.3852 17.2173C13.2022 16.2018 12.4096 14.9467 12.173 14.5588C11.9364 14.1708 12.1493 13.9655 12.3504 13.7716C12.5279 13.6004 12.7408 13.3265 12.9419 13.0983C13.143 12.8815 13.2141 12.7217 13.3442 12.4593C13.4743 12.2083 13.4151 11.9802 13.3087 11.7863C13.214 11.5923 12.4096 9.70972 12.0784 8.93387C11.759 8.19224 11.4277 8.29485 11.1911 8.28344C10.9309 8.27203 10.6824 8.27202 10.4222 8.27202C10.2211 8.27202 10.02 8.31778 9.8425 8.39764C9.65323 8.47751 9.4994 8.60281 9.35744 8.75113C9.00254 9.12765 7.97336 10.0633 7.97336 11.9459C7.97336 13.8399 9.39294 15.6654 9.59405 15.9164C9.79516 16.1789 12.3977 20.0583 16.3963 21.7241C17.3426 22.112 18.088 22.3515 18.6677 22.5227C19.614 22.8193 20.4895 22.7736 21.1756 22.6823C21.9327 22.5682 23.5298 21.7583 23.861 20.8569C24.1922 19.9556 24.1922 19.191 24.0857 19.0313C23.9911 18.8715 23.719 18.769 23.3286 18.575Z" fill="black"/>
</svg>
