<svg width="47" height="47" viewBox="0 0 47 47" fill="none" xmlns="http://www.w3.org/2000/svg">
<mask id="mask0_91_334" style="mask-type:luminance" maskUnits="userSpaceOnUse" x="0" y="0" width="47" height="47">
<path d="M46.3222 0H0V46.3708H46.3222V0Z" fill="white"/>
</mask>
<g mask="url(#mask0_91_334)">
<path fill-rule="evenodd" clip-rule="evenodd" d="M0 23.1847C0 32.3619 5.32894 40.2932 13.0531 44.0508L2.00351 13.7495C0.719291 16.6317 0 19.8226 0 23.1847ZM38.7976 22.0152C38.7976 19.1489 37.7657 17.1651 36.8882 15.6217C35.7132 13.7103 34.6098 12.093 34.6098 10.1831C34.6098 8.05155 36.2254 6.06741 38.5001 6.06741C38.6056 6.06741 38.6997 6.0806 38.8014 6.08626C34.6814 2.30685 29.1905 0 23.1611 0C15.0679 0 7.95008 4.15604 3.80745 10.4497C4.35352 10.467 4.86569 10.4772 5.29878 10.4772C7.72034 10.4772 11.4713 10.1831 11.4713 10.1831C12.7216 10.1092 12.8685 11.9467 11.622 12.093C11.622 12.093 10.3641 12.2408 8.97066 12.3146L17.4028 37.4284L22.4719 22.2109L18.864 12.3146C17.6175 12.2408 16.435 12.093 16.435 12.093C15.1884 12.0191 15.3353 10.1092 16.5818 10.1831C16.5818 10.1831 20.4081 10.4772 22.6828 10.4772C25.1043 10.4772 28.8553 10.1831 28.8553 10.1831C30.1056 10.1092 30.2525 11.9467 29.0022 12.093C29.0022 12.093 27.7481 12.2408 26.3509 12.3146L34.7228 37.2369L37.0351 29.5103C38.0331 26.3017 38.7976 23.999 38.7976 22.0152ZM43.4863 12.0617C43.5842 12.8006 43.6407 13.5919 43.6407 14.4455C43.6407 16.7976 43.2001 19.4422 41.8782 22.7504L34.8057 43.2251C41.69 39.2067 46.3222 31.738 46.3222 23.185C46.3222 19.1538 45.294 15.3642 43.4863 12.0617ZM23.5678 25.2129L16.6157 45.4268C18.6946 46.0383 20.8864 46.3716 23.1611 46.3716C25.8576 46.3716 28.4448 45.9052 30.8513 45.0574C30.7911 44.9575 30.7346 44.853 30.6856 44.7384L23.5678 25.2129Z" fill="#00759D"/>
</g>
</svg>
