<svg width="48" height="48" viewBox="0 0 48 48" fill="none" xmlns="http://www.w3.org/2000/svg">
<path fill-rule="evenodd" clip-rule="evenodd" d="M31.9178 28.2676C30.9263 29.3541 29.5345 29.9039 28.8826 29.9039C28.1285 29.9039 27.7164 29.442 27.6321 28.7473C27.6036 28.4813 27.6132 28.2129 27.6606 27.9481C27.91 26.3925 28.4824 25.4259 28.4468 25.1314C28.4361 25.0471 28.3886 25.0055 28.3268 25.0055C27.8447 25.0055 26.1537 26.7511 25.8972 27.9065L25.6977 28.8316C25.5671 29.4835 24.9282 29.9027 24.4888 29.9027C24.2787 29.9027 24.1195 29.7983 24.0922 29.5667C24.0839 29.461 24.0922 29.3553 24.1171 29.2508L24.2109 28.7639C23.2989 29.4455 22.3157 29.9063 21.855 29.9063C21.2256 29.9063 20.8729 29.5703 20.747 29.0644C20.3314 29.6118 19.7816 29.9063 19.1961 29.9063C18.448 29.9063 17.7272 29.4111 17.3817 28.6784C16.8888 29.2318 16.3046 29.7733 15.6051 30.221C14.5732 30.8741 13.4249 31.399 12.064 31.399C10.8076 31.399 9.74125 30.7269 9.15107 30.1806C8.27588 29.3612 7.81397 28.1405 7.67738 27.0266C7.24753 23.5152 9.38503 18.9113 12.6969 16.8937C13.457 16.4305 14.3084 16.2002 15.0815 16.2002C16.6727 16.2002 17.8602 17.3378 18.0264 18.6987C18.1761 19.9242 17.6868 20.9834 16.3272 21.6686C15.6336 22.0201 15.2893 22.0035 15.1812 21.836C15.1088 21.7244 15.1503 21.5344 15.2893 21.4193C16.567 20.3517 16.5908 19.4753 16.4412 18.2403C16.3438 17.4459 15.8213 16.9364 15.2346 16.9364C12.7231 16.9364 9.12021 22.5711 9.62134 26.6704C9.81729 28.2687 10.797 30.1189 12.8062 30.1189C13.476 30.1189 14.1861 29.93 14.8178 29.6142C15.9198 29.0513 16.5433 28.6048 17.1691 27.8757C17.0147 25.9804 18.6416 23.6007 21.0617 23.6007C22.1091 23.6007 22.976 24.0211 23.0781 24.8618C23.2063 25.9127 22.311 26.1229 21.9761 26.1229C21.6828 26.1229 21.2125 26.0386 21.1793 25.7655C21.1437 25.471 21.8134 25.6396 21.7303 24.9663C21.6792 24.5459 21.2422 24.3987 20.8242 24.3987C19.3173 24.3987 18.4848 26.5006 18.6451 27.8056C18.7176 28.3946 19.0192 28.9824 19.5643 28.9824C20.0037 28.9824 20.6378 28.3519 20.8812 27.4268C21.0356 26.7962 21.6317 26.3758 22.0723 26.3758C22.3026 26.3758 22.4618 26.4804 22.4903 26.7119C22.4998 26.7962 22.4926 26.9019 22.4653 27.0278C22.4154 27.3009 22.2053 28.2106 22.2159 28.3982C22.2231 28.562 22.3181 28.7877 22.6031 28.7877C22.8287 28.7877 23.66 28.3388 24.4295 27.65C24.6705 26.402 24.9686 24.8582 24.9923 24.7359C25.0861 24.23 25.2678 23.7087 26.2938 23.7087C26.504 23.7087 26.6631 23.8133 26.694 24.0662C26.7035 24.1493 26.6964 24.2562 26.6691 24.382L26.3817 25.68C27.2818 24.4806 28.6807 23.5995 29.5191 23.5995C29.8753 23.5995 30.1497 23.7871 30.1959 24.1671C30.2221 24.3785 30.1603 24.7347 30.0214 25.1337C29.7233 25.9531 29.3885 27.1846 29.1664 28.245C29.1189 28.4706 29.1973 28.8102 29.6093 28.8102C29.9383 28.8102 30.9939 28.4077 31.8478 27.2807C31.8418 27.1216 31.8395 26.9601 31.8395 26.7962C31.8395 25.9127 31.9024 25.1979 32.0698 24.6742C32.2373 24.1268 32.9284 23.603 33.3879 23.603C33.6183 23.603 33.7858 23.7289 33.7858 23.9807C33.7858 24.065 33.7644 24.1707 33.7228 24.2752C33.4093 25.2002 33.2419 26.0635 33.2419 26.9245C33.2419 27.4078 33.3464 28.1856 33.4521 28.5846C33.4734 28.6689 33.4925 28.7532 33.5768 28.7532C33.7228 28.7532 34.7073 27.7866 35.4186 26.6086C34.7892 26.2084 34.4341 25.4734 34.4341 24.5685C34.4341 23.0556 35.3343 22.2766 36.213 22.2766C36.9042 22.2766 37.5312 22.7813 37.5312 23.7895C37.5312 24.4212 37.2794 25.1361 36.9255 25.8296C36.9255 25.8296 37.0716 25.851 37.1345 25.851C37.6784 25.851 38.0976 25.598 38.3292 25.3249C38.4336 25.2062 38.531 25.1135 38.6236 25.0589C39.3243 24.2123 40.3515 23.6007 41.5568 23.6007C42.5828 23.6007 43.4686 24.0009 43.5708 24.8416C43.7014 25.9127 42.7858 26.1241 42.4711 26.1241C42.1576 26.1241 41.6862 26.0398 41.6529 25.7667C41.6197 25.4935 42.3073 25.6408 42.2277 24.9901C42.1767 24.5697 41.7373 24.401 41.3181 24.401C39.9144 24.401 38.9502 26.2726 39.1355 27.7854C39.2091 28.3958 39.4905 28.9848 40.0356 28.9848C40.475 28.9848 41.1316 28.3531 41.3739 27.4292C41.5295 26.8188 42.1244 26.3783 42.5638 26.3783C42.7728 26.3783 42.9533 26.4827 42.9841 26.7357C42.9996 26.8615 42.9485 27.1359 42.7146 28.1227C42.6184 28.543 42.5994 28.9005 42.6362 29.195C42.711 29.8054 42.9901 30.2044 43.2489 30.4359C43.3428 30.5191 43.3986 30.6235 43.4057 30.6889C43.4259 30.8575 43.2976 31.0047 43.0887 31.0047C43.0257 31.0047 42.9426 31.0047 42.8737 30.9632C41.7954 30.5214 41.3478 29.7864 41.2219 29.0917C40.8063 29.6165 40.2553 29.911 39.69 29.911C38.727 29.911 37.7865 29.0691 37.6535 27.9766C37.5988 27.5277 37.6523 27.0444 37.7995 26.5706C37.4088 26.8117 36.9885 26.9458 36.6108 26.9458C36.485 26.9458 36.3804 26.9458 36.2558 26.9245C35.3141 28.2901 34.3296 29.2366 33.5756 29.6581C33.2621 29.8267 32.97 29.911 32.7598 29.911C32.5911 29.911 32.4035 29.8695 32.3204 29.7222C32.1233 29.3933 31.9938 28.8755 31.9178 28.2676ZM35.3295 23.7895C35.3295 24.3785 35.6217 24.9889 35.9993 25.3879C36.1465 24.9877 36.2296 24.5887 36.2296 24.1885C36.2296 23.4309 35.9363 23.0948 35.706 23.0948C35.434 23.0948 35.3295 23.4748 35.3295 23.7895Z" fill="white"/>
<path fill-rule="evenodd" clip-rule="evenodd" d="M47.4998 23.75C47.4998 36.8659 36.8659 47.5 23.75 47.5C10.6341 47.5 0 36.8659 0 23.75C0 10.6341 10.6341 0 23.75 0C36.8659 0 47.4998 10.6341 47.4998 23.75Z" fill="url(#paint0_linear_217_7)"/>
<path fill-rule="evenodd" clip-rule="evenodd" d="M29.9178 27.2676C28.9263 28.3541 27.5345 28.9039 26.8826 28.9039C26.1285 28.9039 25.7164 28.442 25.6321 27.7473C25.6036 27.4813 25.6132 27.2129 25.6606 26.9481C25.91 25.3925 26.4824 24.4259 26.4468 24.1314C26.4361 24.0471 26.3886 24.0055 26.3268 24.0055C25.8447 24.0055 24.1537 25.7511 23.8972 26.9065L23.6977 27.8316C23.5671 28.4835 22.9282 28.9027 22.4888 28.9027C22.2787 28.9027 22.1195 28.7983 22.0922 28.5667C22.0839 28.461 22.0922 28.3553 22.1171 28.2508L22.2109 27.7639C21.2989 28.4455 20.3157 28.9063 19.855 28.9063C19.2256 28.9063 18.8729 28.5703 18.747 28.0644C18.3314 28.6118 17.7816 28.9063 17.1961 28.9063C16.448 28.9063 15.7272 28.4111 15.3817 27.6784C14.8888 28.2318 14.3046 28.7733 13.6051 29.221C12.5732 29.8741 11.4249 30.399 10.064 30.399C8.80762 30.399 7.74125 29.7269 7.15107 29.1806C6.27588 28.3612 5.81397 27.1405 5.67738 26.0266C5.24753 22.5152 7.38503 17.9113 10.6969 15.8937C11.457 15.4305 12.3084 15.2002 13.0815 15.2002C14.6727 15.2002 15.8602 16.3378 16.0264 17.6987C16.1761 18.9242 15.6868 19.9834 14.3272 20.6686C13.6336 21.0201 13.2893 21.0035 13.1812 20.836C13.1088 20.7244 13.1503 20.5344 13.2893 20.4193C14.567 19.3517 14.5908 18.4753 14.4412 17.2403C14.3438 16.4459 13.8213 15.9364 13.2346 15.9364C10.7231 15.9364 7.12021 21.5711 7.62134 25.6704C7.81729 27.2687 8.79696 29.1189 10.8062 29.1189C11.476 29.1189 12.1861 28.93 12.8178 28.6142C13.9198 28.0513 14.5433 27.6048 15.1691 26.8757C15.0147 24.9804 16.6416 22.6007 19.0617 22.6007C20.1091 22.6007 20.976 23.0211 21.0781 23.8618C21.2063 24.9127 20.311 25.1229 19.9761 25.1229C19.6828 25.1229 19.2125 25.0386 19.1793 24.7655C19.1437 24.471 19.8134 24.6396 19.7303 23.9663C19.6792 23.5459 19.2422 23.3987 18.8242 23.3987C17.3173 23.3987 16.4848 25.5006 16.6451 26.8056C16.7176 27.3946 17.0192 27.9824 17.5643 27.9824C18.0037 27.9824 18.6378 27.3519 18.8812 26.4268C19.0356 25.7962 19.6317 25.3758 20.0723 25.3758C20.3026 25.3758 20.4618 25.4804 20.4903 25.7119C20.4998 25.7962 20.4926 25.9019 20.4653 26.0278C20.4154 26.3009 20.2053 27.2106 20.2159 27.3982C20.2231 27.562 20.3181 27.7877 20.6031 27.7877C20.8287 27.7877 21.66 27.3388 22.4295 26.65C22.6705 25.402 22.9686 23.8582 22.9923 23.7359C23.0861 23.23 23.2678 22.7087 24.2938 22.7087C24.504 22.7087 24.6631 22.8133 24.694 23.0662C24.7035 23.1493 24.6964 23.2562 24.6691 23.382L24.3817 24.68C25.2818 23.4806 26.6807 22.5995 27.5191 22.5995C27.8753 22.5995 28.1497 22.7871 28.1959 23.1671C28.2221 23.3785 28.1603 23.7347 28.0214 24.1337C27.7233 24.9531 27.3885 26.1846 27.1664 27.245C27.1189 27.4706 27.1973 27.8102 27.6093 27.8102C27.9383 27.8102 28.9939 27.4077 29.8478 26.2807C29.8418 26.1216 29.8395 25.9601 29.8395 25.7962C29.8395 24.9127 29.9024 24.1979 30.0698 23.6742C30.2373 23.1268 30.9284 22.603 31.3879 22.603C31.6183 22.603 31.7858 22.7289 31.7858 22.9807C31.7858 23.065 31.7644 23.1707 31.7228 23.2752C31.4093 24.2002 31.2419 25.0635 31.2419 25.9245C31.2419 26.4078 31.3464 27.1856 31.4521 27.5846C31.4734 27.6689 31.4925 27.7532 31.5768 27.7532C31.7228 27.7532 32.7073 26.7866 33.4186 25.6086C32.7892 25.2084 32.4341 24.4734 32.4341 23.5685C32.4341 22.0556 33.3343 21.2766 34.213 21.2766C34.9042 21.2766 35.5312 21.7813 35.5312 22.7895C35.5312 23.4212 35.2794 24.1361 34.9255 24.8296C34.9255 24.8296 35.0716 24.851 35.1345 24.851C35.6784 24.851 36.0976 24.598 36.3292 24.3249C36.4336 24.2062 36.531 24.1135 36.6236 24.0589C37.3243 23.2123 38.3515 22.6007 39.5568 22.6007C40.5828 22.6007 41.4686 23.0009 41.5708 23.8416C41.7014 24.9127 40.7858 25.1241 40.4711 25.1241C40.1576 25.1241 39.6862 25.0398 39.6529 24.7667C39.6197 24.4935 40.3073 24.6408 40.2277 23.9901C40.1767 23.5697 39.7373 23.401 39.3181 23.401C37.9144 23.401 36.9502 25.2726 37.1355 26.7854C37.2091 27.3958 37.4905 27.9848 38.0356 27.9848C38.475 27.9848 39.1316 27.3531 39.3739 26.4292C39.5295 25.8188 40.1244 25.3783 40.5638 25.3783C40.7728 25.3783 40.9533 25.4827 40.9841 25.7357C40.9996 25.8615 40.9485 26.1359 40.7146 27.1227C40.6184 27.543 40.5994 27.9005 40.6362 28.195C40.711 28.8054 40.9901 29.2044 41.2489 29.4359C41.3428 29.5191 41.3986 29.6235 41.4057 29.6889C41.4259 29.8575 41.2976 30.0047 41.0887 30.0047C41.0257 30.0047 40.9426 30.0047 40.8737 29.9632C39.7954 29.5214 39.3478 28.7864 39.2219 28.0917C38.8063 28.6165 38.2553 28.911 37.69 28.911C36.727 28.911 35.7865 28.0691 35.6535 26.9766C35.5988 26.5277 35.6523 26.0444 35.7995 25.5706C35.4088 25.8117 34.9885 25.9458 34.6108 25.9458C34.485 25.9458 34.3804 25.9458 34.2558 25.9245C33.3141 27.2901 32.3296 28.2366 31.5756 28.6581C31.2621 28.8267 30.97 28.911 30.7598 28.911C30.5911 28.911 30.4035 28.8695 30.3204 28.7222C30.1233 28.3933 29.9938 27.8755 29.9178 27.2676ZM33.3295 22.7895C33.3295 23.3785 33.6217 23.9889 33.9993 24.3879C34.1465 23.9877 34.2296 23.5887 34.2296 23.1885C34.2296 22.4309 33.9363 22.0948 33.706 22.0948C33.434 22.0948 33.3295 22.4748 33.3295 22.7895Z" fill="white"/>
<defs>
<linearGradient id="paint0_linear_217_7" x1="40.6873" y1="42.4294" x2="7.30312" y2="5.61094" gradientUnits="userSpaceOnUse">
<stop stop-color="#823AF3"/>
<stop offset="0.36" stop-color="#4B66E1"/>
<stop offset="0.906" stop-color="#01F1C4"/>
</linearGradient>
</defs>
</svg>
