<svg width="43" height="45" viewBox="0 0 43 45" fill="none" xmlns="http://www.w3.org/2000/svg">
<path d="M0 0H42.907V44.5807H0V0Z" fill="#F7DF1E"/>
<path d="M11.2837 37.2559L14.565 35.1918C15.1981 36.3553 15.7732 37.345 17.1553 37.345C18.4839 37.345 19.3176 36.8056 19.3176 34.7103V20.4668H23.3479V34.7683C23.3479 39.1104 20.9003 41.0854 17.3292 41.0854C14.1058 41.0854 12.2333 39.3467 11.2837 37.2559Z" fill="black"/>
<path d="M25.5415 36.8057L28.8228 34.8307C29.6877 36.2974 30.8112 37.3763 32.7996 37.3763C34.467 37.3763 35.5326 36.5069 35.5326 35.3077C35.5326 33.8722 34.4403 33.364 32.5946 32.5259L31.587 32.0756C28.6801 30.7917 26.7497 29.1734 26.7497 25.763C26.7497 22.6201 29.0546 20.2261 32.6525 20.2261C35.2161 20.2261 37.0618 21.1534 38.3859 23.5786L35.2473 25.6738C34.5563 24.3854 33.8072 23.8773 32.6525 23.8773C31.4755 23.8773 30.7265 24.6574 30.7265 25.6738C30.7265 26.931 31.4755 27.4393 33.2009 28.2194L34.2085 28.6652C37.6369 30.1943 39.5674 31.7502 39.5674 35.2498C39.5674 39.0213 36.7141 41.0854 32.8844 41.0854C29.1394 41.0854 26.723 39.2309 25.5415 36.8057Z" fill="black"/>
</svg>
