<svg width="57" height="45" viewBox="0 0 57 45" fill="none" xmlns="http://www.w3.org/2000/svg">
<path d="M48.5944 25.5838C46.6238 25.5972 44.9118 26.0921 43.4807 26.8366C42.9501 25.7354 42.4196 24.7725 42.3349 24.0503C42.2323 23.2166 42.1119 22.7039 42.2323 21.7053C42.3527 20.7067 42.9055 19.289 42.9055 19.1731C42.8966 19.0706 42.7852 18.5579 41.6483 18.549C40.5114 18.5356 39.5306 18.7808 39.4236 19.0929C39.3121 19.405 39.0892 20.1272 38.9465 20.8717C38.7504 21.9594 36.6772 25.8291 35.4958 27.8575C35.1124 27.0684 34.778 26.3729 34.7111 25.8156C34.613 24.9775 34.4927 24.4693 34.613 23.4707C34.7334 22.4721 35.2862 21.0544 35.2862 20.9385C35.2773 20.836 35.1659 20.3233 34.029 20.3144C32.8921 20.301 31.9113 20.5462 31.8043 20.8583C31.6929 21.1703 31.5724 21.9148 31.3272 22.6326C31.0954 23.3548 28.3402 29.8101 27.6224 31.4908C27.2613 32.3512 26.9402 33.0377 26.7084 33.5014C26.4766 33.965 26.6951 33.537 26.6728 33.5816C26.4766 33.9784 26.3651 34.1968 26.3651 34.1968V34.2102C26.2135 34.5 26.0441 34.7764 25.9683 34.7764C25.9148 34.7764 25.8034 34.0007 25.9906 32.9308C26.4008 30.6928 27.3905 27.1977 27.3816 27.0684C27.3816 27.0104 27.5688 26.3952 26.7396 26.0831C25.9371 25.771 25.6473 26.2927 25.5849 26.2927C25.518 26.2927 25.4601 26.4754 25.4601 26.4754C25.4601 26.4754 26.3562 22.5434 23.7525 22.5434C22.1208 22.5434 19.8693 24.4114 18.7592 26.1188C18.0503 26.5245 16.5523 27.3849 14.9652 28.2988C14.3588 28.6465 13.7302 29.021 13.1328 29.3554L13.0124 29.2171C9.86038 25.6774 4.0244 23.1675 4.26961 18.4063C4.35432 16.6766 4.92947 12.116 15.4734 6.58798C24.1048 2.06304 31.0196 3.30242 32.2234 6.06642C33.9309 10.0163 28.5274 17.3542 19.5528 18.4063C16.1332 18.8165 14.3365 17.4211 13.8818 16.8995C13.4092 16.3556 13.3423 16.3289 13.1685 16.4359C12.8787 16.5964 13.057 17.0868 13.1685 17.3765C13.4315 18.1077 14.5327 19.405 16.4097 20.0558C18.0503 20.6265 22.0673 20.9385 26.9179 18.9636C32.3526 16.7479 36.597 10.5958 35.3531 5.4512C34.087 0.217428 25.8345 -1.50341 18.0414 1.41216C13.4003 3.15527 8.37129 5.87023 4.75112 9.43223C0.453285 13.6585 -0.228853 17.3543 0.05648 18.8834C1.05961 24.3534 8.21522 27.9154 11.0819 30.5501C10.9393 30.6348 10.8055 30.7151 10.6851 30.7864C9.25401 31.5264 3.79257 34.5357 2.42832 37.7143C0.881275 41.3119 2.66908 43.902 3.85945 44.2498C7.54204 45.3331 11.3138 43.3938 13.3557 40.2018C15.3843 37.0054 15.139 32.8639 14.2028 30.9692L14.1716 30.9023L15.2951 30.2024C16.0218 29.7522 16.7396 29.3331 17.3682 28.972C17.016 29.984 16.7619 31.1787 16.6281 32.9218C16.4765 34.9636 17.2701 37.6117 18.3179 38.6549C18.7815 39.1096 19.3299 39.1186 19.6731 39.1186C20.8858 39.1186 21.4387 38.062 22.045 36.7959C22.794 35.2534 23.4538 33.4657 23.4538 33.4657C23.4538 33.4657 22.6291 38.3072 24.8894 38.3072C25.7142 38.3072 26.5434 37.1793 26.9179 36.5997V36.6131C26.9179 36.6131 26.9402 36.5775 26.9848 36.4972C27.0294 36.4259 27.074 36.3501 27.1141 36.2743V36.252C27.4485 35.6502 28.1841 34.2682 29.2898 31.9812C30.712 29.0299 32.0763 25.3387 32.0763 25.3387C32.0763 25.3387 32.21 26.2436 32.6202 27.7326C32.8609 28.6153 33.3915 29.5783 33.7972 30.5189C33.4673 31.0049 33.2666 31.2857 33.2666 31.2857L33.28 31.2946C33.0169 31.6646 32.7183 32.0614 32.4106 32.4582C31.2827 33.8714 29.9407 35.4852 29.7624 35.9488C29.5528 36.4972 29.5974 36.9029 30.0031 37.2283C30.3018 37.4601 30.8324 37.5047 31.3941 37.4601C32.4106 37.3888 33.1151 37.1213 33.4673 36.9608C34.0201 36.7513 34.6487 36.4392 35.2551 35.9756C36.3563 35.1152 37.0295 33.8981 36.9626 32.2709C36.9314 31.3748 36.655 30.4922 36.3117 29.6585C36.4098 29.5069 36.5123 29.3554 36.6104 29.1949C38.3536 26.5111 39.6955 23.5643 39.6955 23.5643C39.6955 23.5643 39.8293 24.4693 40.2394 25.9539C40.449 26.7117 40.8681 27.532 41.2426 28.3478C39.6108 29.7521 38.5854 31.3749 38.2287 32.4448C37.5823 34.4197 38.0861 35.3113 39.0446 35.5209C39.4771 35.6145 40.0923 35.405 40.556 35.1954C41.1311 34.9993 41.8266 34.6604 42.4641 34.1611C43.5698 33.3052 44.6264 32.106 44.5729 30.4966C44.5373 29.7521 44.35 29.021 44.0959 28.3255C45.4869 27.7192 47.2836 27.3715 49.5663 27.6613C54.4749 28.2676 55.4424 31.4908 55.2551 32.8416C55.0679 34.1879 54.0425 34.928 53.7036 35.1598C53.3604 35.3827 53.2489 35.4629 53.2845 35.6279C53.3247 35.8686 53.4807 35.8597 53.7794 35.8107C54.1851 35.7438 56.3608 34.7095 56.4455 32.2263C56.5792 29.0299 53.7036 25.5481 48.5944 25.5838ZM10.752 39.016C9.12918 40.8839 6.84655 41.5928 5.87909 40.9909C4.83138 40.349 5.23705 37.5983 7.23439 35.6145C8.44705 34.4063 10.0253 33.2918 11.0597 32.6053C11.2915 32.4582 11.6437 32.2353 12.0628 31.9678C12.1297 31.9232 12.1743 31.9009 12.1743 31.9009C12.25 31.8519 12.3392 31.7939 12.4284 31.736C13.1684 34.5668 12.4596 37.0544 10.752 39.016ZM22.6068 30.5279C22.045 31.9812 20.8546 35.7081 20.1368 35.4986C19.5171 35.3247 19.1426 32.5027 20.0164 29.7165C20.4534 28.3122 21.394 26.6404 21.9424 25.9895C22.8385 24.9463 23.8061 24.5941 24.0513 25.0266C24.3366 25.5838 22.959 29.6229 22.6068 30.5279ZM32.3883 35.4495C32.1431 35.5788 31.9246 35.6725 31.8221 35.6011C31.7463 35.5566 31.9246 35.3827 31.9246 35.3827C31.9246 35.3827 33.1463 34.0007 33.6322 33.3632C33.9086 32.9887 34.2386 32.5607 34.5908 32.0748V32.213C34.5908 33.8847 33.0704 34.9993 32.3883 35.4495ZM39.9274 33.6396C39.7535 33.5014 39.7758 33.0734 40.3688 31.7226C40.6006 31.1921 41.1311 30.296 42.0451 29.449C42.1565 29.7967 42.2234 30.1355 42.21 30.4476C42.2011 32.5384 40.7878 33.3141 39.9274 33.6396Z" fill="#CF649A"/>
</svg>
