<svg width="73" height="59" viewBox="0 0 73 59" fill="none" xmlns="http://www.w3.org/2000/svg">
<mask id="mask0_91_329" style="mask-type:luminance" maskUnits="userSpaceOnUse" x="0" y="0" width="73" height="59">
<path d="M72.583 0H0V59H72.583V0Z" fill="white"/>
</mask>
<g mask="url(#mask0_91_329)">
<path d="M17.9115 15.3722C18.1784 15.009 18.5155 14.6603 19.0072 14.4894C19.2086 14.4609 19.41 14.4753 19.6113 14.4753H29.5248C29.2345 14.6744 28.9535 14.8807 28.7615 15.1514C28.2558 15.8274 27.9139 16.5818 27.5955 17.3363C26.7058 19.6137 26.0829 21.9554 25.4789 24.2968C25.2073 25.3572 24.945 26.4246 24.6968 27.485C23.9476 30.9584 23.1656 34.4242 22.1962 37.8618C21.7326 39.4487 21.2597 41.036 20.5385 42.5662C20.206 43.1996 19.8829 43.8756 19.2461 44.3453C19.0962 44.4519 18.9464 44.5874 18.7357 44.5661H9.97886C9.38415 44.5516 8.79881 44.5943 8.2041 44.5448C8.59745 44.2955 8.94867 43.9967 9.17344 43.6408C9.83371 42.6229 10.2458 41.5198 10.6391 40.4239C11.2526 38.6589 11.7396 36.8725 12.2032 35.0862C12.4935 33.9119 12.8354 32.7448 13.0461 31.5633C13.2802 30.2466 13.6408 28.944 13.9311 27.6346C14.3854 25.7059 14.8677 23.7772 15.4015 21.8625C15.8277 20.3681 16.2678 18.8805 16.8532 17.4215C17.1435 16.717 17.4573 16.0196 17.9115 15.3722Z" fill="#EB7077" stroke="#EB7077" stroke-width="0.292969"/>
<path d="M29.5247 14.4754C29.7776 14.4754 30.0305 14.4682 30.2834 14.4754C30.8453 14.7175 31.3182 15.1015 31.5804 15.5785C31.9316 16.1194 32.222 16.6888 32.4842 17.2724C33.3599 19.4714 33.9546 21.7347 34.5494 23.9907C35.0551 26.012 35.5374 28.0404 35.9916 30.0757C36.0291 30.1827 35.9869 30.3319 36.1602 30.3605C35.528 33.0364 34.9099 35.7196 34.1185 38.3742C33.6924 39.8047 33.2335 41.2283 32.5872 42.6089C32.236 43.2994 31.8802 44.0534 31.1356 44.5448C30.6626 44.6301 30.3208 44.3381 30.0305 44.0751C29.5341 43.5555 29.225 42.9435 28.93 42.3314C27.9373 40.1393 27.3332 37.8546 26.7198 35.5772C26.2562 33.8049 25.8441 32.0186 25.4179 30.2394C25.2259 29.3358 24.9637 28.4458 24.8138 27.5422C24.7858 27.5281 24.7249 27.4995 24.6968 27.4851C24.945 26.4246 25.2072 25.3573 25.4788 24.2968C26.0829 21.9554 26.7057 19.6137 27.5954 17.3363C27.9139 16.5819 28.2557 15.8274 28.7615 15.1514C28.9534 14.8812 29.2344 14.6745 29.5247 14.4754Z" fill="#F6A2AD" stroke="#F6A2AD" stroke-width="0.292969"/>
<path d="M40.4779 15.7065C40.7916 15.2155 41.1756 14.6677 41.8593 14.4823C45.3339 14.4683 48.8132 14.4755 52.2879 14.4755C51.9648 14.7389 51.6229 15.0019 51.4028 15.3365C50.7285 16.3186 50.3351 17.4076 49.9324 18.4822C48.8975 21.4428 48.1717 24.4678 47.4833 27.4924C46.8418 30.4744 46.1581 33.4564 45.3808 36.4242C44.978 37.9187 44.5566 39.4062 44.0228 40.8793C43.6809 41.7906 43.3203 42.7087 42.7631 43.5556C42.4915 43.9397 42.173 44.3596 41.6579 44.559C38.3425 44.5803 35.0131 44.559 31.693 44.5663C31.5104 44.5663 31.3184 44.5663 31.1357 44.5449C31.8803 44.0535 32.2362 43.2991 32.5874 42.609C33.2336 41.2284 33.6925 39.8048 34.1187 38.3743C34.9101 35.7197 35.5282 33.0365 36.1604 30.3606C36.9236 26.9089 37.7197 23.4572 38.7359 20.0481C39.2088 18.5747 39.6631 17.0802 40.4779 15.7065Z" fill="#EB7077" stroke="#EB7077" stroke-width="0.292969"/>
<path d="M52.2874 14.4754C52.5684 14.4754 52.8587 14.4682 53.135 14.4754C53.5939 14.6676 53.917 14.995 54.2027 15.3292C54.6756 15.9412 54.9754 16.6317 55.2797 17.3078C56.0103 19.1227 56.5534 20.9875 57.0498 22.8519C57.7147 25.3645 58.2954 27.8908 58.862 30.4176C59.0025 31.0224 59.143 31.6345 59.232 32.2466C59.2648 32.2751 59.335 32.3318 59.3631 32.3531C59.0447 32.709 58.9229 33.1361 58.7496 33.5419C58.1971 34.9865 57.8365 36.4812 57.5321 37.9684C57.2933 39.1359 56.9702 40.2957 56.5253 41.4205C56.1928 42.253 55.7901 43.0786 55.1252 43.7759C54.8067 44.1105 54.3806 44.3667 53.9077 44.5376C53.1818 44.6015 52.751 44.0321 52.3998 43.6123C51.674 42.5803 51.2806 41.4273 50.8592 40.3029C49.4778 36.1394 48.574 31.8766 47.6047 27.6419C47.5953 27.5776 47.5485 27.5209 47.4829 27.4923C48.1713 24.4677 48.8971 21.4427 49.932 18.4821C50.3347 17.4075 50.7281 16.3185 51.4024 15.3364C51.6225 15.0018 51.9643 14.7388 52.2874 14.4754Z" fill="#F6A2AD" stroke="#F6A2AD" stroke-width="0.292969"/>
<path d="M0.00878906 30.6667C0.236372 30.6526 0.46395 30.624 0.70043 30.624H10.2458C10.6485 30.6667 11.0653 30.6381 11.454 30.7805C12.0112 30.9655 12.5123 31.2787 12.8775 31.67C12.9244 31.6487 13.004 31.592 13.0461 31.5635C12.8354 32.745 12.4935 33.912 12.2032 35.0863C11.7396 36.8727 11.2526 38.6591 10.6392 40.4241C10.2458 41.52 9.83374 42.6231 9.17347 43.641C8.9487 43.9969 8.59749 44.2957 8.20413 44.545C8.05429 44.5663 7.9419 44.4806 7.82014 44.4167C7.40806 44.2032 7.16924 43.8332 6.91637 43.4986C5.71758 41.2783 5.58647 38.8227 4.8419 36.5027C4.46728 35.3425 4.00086 34.1895 3.31812 33.1218C2.89807 32.4816 2.38156 31.8695 1.70724 31.3785C1.20805 31.0511 0.630194 30.7877 0.00878906 30.6667Z" fill="#F6A2AD" stroke="#F6A2AD" stroke-width="0.292969"/>
<path d="M60.1311 31.4064C60.6837 30.9013 61.5079 30.5812 62.3367 30.6094H69.5201C70.5175 30.6238 71.5243 30.5812 72.5217 30.6307C72.2221 30.7944 71.8662 30.8587 71.5478 30.9938C70.4567 31.3996 69.5201 32.0756 68.9207 32.9225C67.9701 34.2746 67.6376 35.8261 67.3566 37.3494C67.0757 38.8439 67.085 40.3881 66.4903 41.8403C66.0876 42.8578 65.4742 43.8828 64.4159 44.5516C61.1239 44.5802 57.8319 44.5589 54.5446 44.5661C54.3292 44.5661 54.1184 44.5729 53.9077 44.5375C54.3807 44.3666 54.8068 44.1105 55.1252 43.7759C55.7902 43.0785 56.1929 42.2529 56.5254 41.4201C56.9702 40.2956 57.2934 39.1358 57.5322 37.9684C57.8366 36.4812 58.1971 34.9864 58.7497 33.5419C58.923 33.1361 59.0447 32.709 59.3632 32.3531C59.6254 32.0398 59.7987 31.6771 60.1311 31.4064Z" fill="#EB7077" stroke="#EB7077" stroke-width="0.292969"/>
</g>
</svg>
