<svg width="43" height="45" viewBox="0 0 43 45" fill="none" xmlns="http://www.w3.org/2000/svg">
<mask id="mask0_217_5" style="mask-type:luminance" maskUnits="userSpaceOnUse" x="0" y="0" width="43" height="45">
<path d="M42.9079 0H0V44.5807H42.9079V0Z" fill="white"/>
</mask>
<g mask="url(#mask0_217_5)">
<path d="M42.9079 37.1491C42.9079 41.2371 39.6899 44.5807 35.7567 44.5807H7.15116C3.21802 44.5807 0 41.2371 0 37.1491V7.43162C0 3.34357 3.21802 0 7.15116 0H35.7567C39.6899 0 42.9079 3.34357 42.9079 7.43162V37.1491Z" fill="#563D7C"/>
<path d="M11.6597 9.6875H23.8238C26.0672 9.6875 27.8693 10.2225 29.2224 11.2924C30.5755 12.3623 31.2554 13.9717 31.2554 16.1339C31.2554 17.4445 30.9473 18.568 30.3303 19.4997C29.7133 20.4315 28.8296 21.1626 27.6798 21.6708V21.7421C29.2224 22.0854 30.3931 22.8433 31.1854 24.0157C31.9776 25.1971 32.3776 26.6683 32.3776 28.4471C32.3776 29.468 32.2019 30.422 31.8515 31.3002C31.5011 32.1918 30.954 32.9542 30.2041 33.5961C29.4538 34.2381 28.5001 34.7463 27.3294 35.1253C26.1586 35.5042 24.7703 35.6959 23.1577 35.6959H11.6597V9.6875ZM16.0413 20.5786H23.1929C24.2447 20.5786 25.1207 20.2709 25.822 19.6468C26.5233 19.0182 26.8737 18.1311 26.8737 16.9676C26.8737 15.6524 26.5581 14.7296 25.9272 14.1991C25.2964 13.6641 24.3847 13.3966 23.1929 13.3966H16.0413V20.5786ZM16.0413 31.9779H23.7886C25.1207 31.9779 26.1586 31.6212 26.8876 30.899C27.6236 30.1857 27.9955 29.1693 27.9955 27.8541C27.9955 26.5658 27.6308 25.585 26.8876 24.885C26.1444 24.1851 25.1207 23.8508 23.7886 23.8508H16.0413V31.9779Z" fill="white"/>
</g>
</svg>
