<svg width="33" height="47" viewBox="0 0 33 47" fill="none" xmlns="http://www.w3.org/2000/svg">
<path d="M24.3333 31.3332C28.6596 31.3332 32.1667 27.8261 32.1667 23.4998C32.1667 19.1736 28.6596 15.6665 24.3333 15.6665C20.0071 15.6665 16.5 19.1736 16.5 23.4998C16.5 27.8261 20.0071 31.3332 24.3333 31.3332Z" fill="#19BCFE"/>
<path fill-rule="evenodd" clip-rule="evenodd" d="M8.66683 47.0002C12.9931 47.0002 16.5002 43.4931 16.5002 39.1668C16.5002 37.9858 16.5002 35.3747 16.5002 31.3335C12.9811 31.3335 10.37 31.3335 8.66683 31.3335C4.3406 31.3335 0.833496 34.8406 0.833496 39.1668C0.833496 43.4931 4.3406 47.0002 8.66683 47.0002Z" fill="#09CF83"/>
<path fill-rule="evenodd" clip-rule="evenodd" d="M8.66683 31.3332C10.1089 31.3332 12.72 31.3332 16.5002 31.3332V15.6665C12.72 15.6665 10.1089 15.6665 8.66683 15.6665C4.3406 15.6665 0.833496 19.1736 0.833496 23.4998C0.833496 27.8261 4.3406 31.3332 8.66683 31.3332Z" fill="#A259FF"/>
<path fill-rule="evenodd" clip-rule="evenodd" d="M8.66683 15.6667C10.1089 15.6667 12.72 15.6667 16.5002 15.6667V0C12.72 0 10.1089 0 8.66683 0C4.3406 0 0.833496 3.5071 0.833496 7.83333C0.833496 12.1596 4.3406 15.6667 8.66683 15.6667Z" fill="#F24E1E"/>
<path fill-rule="evenodd" clip-rule="evenodd" d="M24.3333 15.6667H16.5V0H24.3333C28.6596 0 32.1667 3.5071 32.1667 7.83333C32.1667 12.1596 28.6596 15.6667 24.3333 15.6667Z" fill="#FF7262"/>
</svg>
