<svg width="38" height="45" viewBox="0 0 38 45" fill="none" xmlns="http://www.w3.org/2000/svg">
<path d="M19.0002 45C18.4098 45 17.8595 44.8377 17.3478 44.5491L12.1162 41.2804C11.3293 40.8251 11.7227 40.6627 11.9588 40.5771C13.0208 40.2074 13.2173 40.1217 14.319 39.4635C14.4368 39.3778 14.5941 39.4229 14.7124 39.5041L18.7246 42.0243C18.882 42.11 19.0789 42.11 19.1967 42.0243L34.8925 32.4752C35.0499 32.394 35.1286 32.2272 35.1286 32.0198V12.9621C35.1286 12.7547 35.0499 12.5879 34.8925 12.5068L19.1967 2.99817C19.0394 2.9125 18.8429 2.9125 18.7246 2.99817L3.02881 12.5068C2.87143 12.5879 2.79274 12.7953 2.79274 12.9621V32.0198C2.79274 32.1866 2.87143 32.394 3.02881 32.4752L7.31664 35.0812C9.63771 36.321 11.0932 34.8737 11.0932 33.4264V14.6167C11.0932 14.3688 11.2897 14.1209 11.5653 14.1209H13.5717C13.8077 14.1209 14.0433 14.3237 14.0433 14.6167V33.4264C14.0433 36.6906 12.3522 38.5933 9.40165 38.5933C8.49696 38.5933 7.78877 38.5933 5.78245 37.5609L1.652 35.0812C0.629504 34.459 0 33.3003 0 32.0604V13.0027C0 11.7629 0.629504 10.6041 1.652 9.98644L17.3478 0.432822C18.3311 -0.144274 19.6689 -0.144274 20.6522 0.432822L36.348 9.98644C37.3705 10.6041 38 11.7629 38 13.0027V32.0604C38 33.3003 37.3705 34.459 36.348 35.0812L20.6522 44.6303C20.141 44.8782 19.5506 45 19.0002 45ZM23.8384 31.8981C16.9543 31.8981 15.5384 28.5888 15.5384 25.7754C15.5384 25.5275 15.7349 25.2796 16.0105 25.2796H18.056C18.292 25.2796 18.4885 25.4463 18.4885 25.6943C18.8033 27.8855 19.708 28.963 23.878 28.963C27.1824 28.963 28.5984 28.1741 28.5984 26.3165C28.5984 25.239 28.2049 24.4545 23.052 23.918C18.7642 23.4626 16.0892 22.4707 16.0892 18.8729C16.0892 15.523 18.7642 13.5392 23.2485 13.5392C28.2836 13.5392 30.7621 15.3607 31.0768 19.3283C31.0768 19.45 31.0372 19.5762 30.9586 19.6979C30.8799 19.7836 30.7621 19.8648 30.6438 19.8648H28.5984C28.4019 19.8648 28.2049 19.6979 28.1658 19.495C27.6937 17.2182 26.4742 16.4743 23.2485 16.4743C19.6293 16.4743 19.1967 17.7998 19.1967 18.7917C19.1967 19.9909 19.708 20.3606 24.5862 21.0234C29.4244 21.6861 31.7063 22.6375 31.7063 26.1903C31.6667 29.8287 28.8344 31.8981 23.8384 31.8981Z" fill="#539E43"/>
</svg>
