<svg width="57" height="54" viewBox="0 0 57 54" fill="none" xmlns="http://www.w3.org/2000/svg">
<path d="M0 26.9028C0 31.4365 4.20346 35.6715 10.8303 38.0606C9.50709 45.081 10.5933 50.7387 14.2208 52.9431C17.9501 55.2072 23.5059 53.6381 28.7788 48.784C33.9187 53.4426 39.1135 55.2778 42.7377 53.068C46.4633 50.793 47.5963 44.7553 46.2365 37.5122C53.1386 35.1069 57 31.4962 57 26.9028C57 22.4722 52.7885 18.6389 46.2511 16.2662C47.7149 8.72988 46.4746 3.20803 42.6962 0.911311C39.0542 -1.29853 33.799 0.628927 28.5832 5.4124C23.1578 0.335729 17.9544 -1.21712 14.1798 1.08503C10.541 3.30573 9.50278 9.06653 10.8303 16.2173C4.42705 18.5683 0 22.4885 0 26.9028Z" fill="white"/>
<path d="M44.9325 18.9093C44.4033 18.7251 43.855 18.5514 43.2905 18.383C43.3834 17.9988 43.4686 17.6199 43.5446 17.2515C44.787 11.1361 43.9745 6.20484 41.1997 4.5839C38.5394 3.03137 34.1883 4.65231 29.7938 8.52573C29.3709 8.89939 28.9475 9.2941 28.5236 9.70986C28.2413 9.43619 27.9596 9.17305 27.6785 8.92044C23.0733 4.77335 18.4568 3.02611 15.6847 4.65232C13.0272 6.21011 12.2396 10.8414 13.3583 16.641C13.4663 17.1988 13.5928 17.7725 13.7355 18.3514C13.082 18.5408 12.4512 18.7408 11.8482 18.9566C6.4484 20.8618 3 23.8563 3 26.956C3 30.1611 6.70189 33.3767 12.3259 35.3239C12.7699 35.4765 13.2302 35.6239 13.7051 35.7607C13.551 36.387 13.4169 37.0027 13.3046 37.6079C12.2379 43.3023 13.0706 47.823 15.7216 49.3755C18.4601 50.9754 23.0554 49.3282 27.5303 45.3653C27.8837 45.0495 28.2386 44.718 28.5942 44.3707C29.055 44.818 29.5153 45.2443 29.9729 45.6442C34.3072 49.4229 38.5882 50.9544 41.2366 49.3966C43.9723 47.7915 44.8614 42.9339 43.7069 37.0238C43.6189 36.5712 43.5163 36.1133 43.4013 35.6397C43.7237 35.5449 44.0407 35.445 44.3495 35.3397C50.1961 33.3767 54 30.2032 54 26.956C54 23.8405 50.4409 20.8302 44.9325 18.9093Z" fill="#53C1DE"/>
<path d="M43.1306 33.3069C42.8614 33.4026 42.5854 33.493 42.3042 33.5833C41.681 31.4894 40.841 29.2678 39.8125 26.9666C40.7939 24.7238 41.6019 22.5288 42.2067 20.4508C42.7105 20.6049 43.1986 20.7644 43.6694 20.9398C48.2229 22.6033 51 25.0639 51 26.9559C51 28.9755 48.0009 31.5956 43.1306 33.3069ZM41.1096 37.5586C41.6019 40.1947 41.6721 42.581 41.3458 44.4464C41.0531 46.1258 40.4634 47.2419 39.735 47.6883C38.1843 48.6396 34.8683 47.4013 31.2921 44.1382C30.882 43.7608 30.4688 43.3622 30.0546 42.9424C31.4413 41.332 32.827 39.4612 34.1791 37.3832C36.5577 37.16 38.8054 36.7933 40.8431 36.2938C40.9436 36.7242 41.0327 37.1441 41.1096 37.5586ZM20.6727 47.5236C19.1582 48.0922 17.9511 48.1082 17.2221 47.6618C15.6699 46.7104 15.0247 43.0433 15.9045 38.1273C16.0056 37.5639 16.1255 36.9846 16.2638 36.3947C18.2794 36.8677 20.5103 37.2079 22.8947 37.4098C24.2563 39.4453 25.6818 41.3108 27.1182 42.9477C26.8046 43.2719 26.4919 43.5748 26.1808 43.8671C24.272 45.6369 22.359 46.8911 20.6727 47.5236ZM13.5752 33.2963C11.1761 32.4247 9.19451 31.2927 7.83658 30.0597C6.61639 28.949 6 27.8488 6 26.9559C6 25.0533 8.67135 22.6298 13.1264 20.9823C13.6668 20.7803 14.2329 20.5943 14.82 20.4137C15.4358 22.5395 16.2433 24.761 17.2179 27.0091C16.2308 29.289 15.4117 31.5478 14.7901 33.7002C14.3712 33.5727 13.9658 33.4345 13.5752 33.2963ZM15.9543 16.1088C15.03 11.0971 15.6437 7.31306 17.1891 6.36174C18.8356 5.35196 22.4752 6.79222 26.3118 10.4062C26.5574 10.64 26.8035 10.8792 27.0502 11.129C25.6205 12.7606 24.2081 14.6154 22.8586 16.635C20.5444 16.8635 18.3292 17.2302 16.2926 17.7191C16.1648 17.1717 16.0511 16.635 15.9543 16.1088ZM37.1788 21.6732C36.6923 20.7804 36.1922 19.9087 35.6826 19.0584C37.2527 19.271 38.7567 19.5527 40.1691 19.8928C39.7454 21.3331 39.2165 22.8424 38.5943 24.389C38.1482 23.4908 37.6758 22.582 37.1788 21.6732ZM28.5238 12.7234C29.4932 13.8395 30.4641 15.0831 31.4193 16.433C30.4568 16.3852 29.4827 16.3639 28.5003 16.3639C27.5273 16.3639 26.56 16.3852 25.6038 16.433C26.5595 15.0937 27.5388 13.8554 28.5238 12.7234ZM19.8128 21.6892C19.3268 22.582 18.8633 23.4855 18.424 24.389C17.8118 22.8477 17.2881 21.3331 16.8603 19.8662C18.2643 19.5367 19.7615 19.2604 21.3216 19.0584C20.8047 19.9087 20.3009 20.791 19.8128 21.6839V21.6892ZM21.3661 35.0129C19.7547 34.8269 18.2349 34.5665 16.8314 34.2423C17.2661 32.7542 17.8013 31.2076 18.4266 29.6345C18.867 30.5327 19.3321 31.4362 19.8212 32.3343C20.3197 33.2484 20.8361 34.1413 21.3661 35.0129ZM28.582 41.3427C27.5854 40.2053 26.5919 38.9404 25.6216 37.5852C26.5637 37.6224 27.5241 37.6436 28.5003 37.6436C29.5031 37.6436 30.4945 37.6224 31.4706 37.5745C30.5123 38.9563 29.545 40.2213 28.582 41.3427ZM38.6143 29.5548C39.272 31.1439 39.8266 32.6798 40.2665 34.1466C38.8399 34.4921 37.2998 34.7685 35.6769 34.9757C36.1875 34.1148 36.6918 33.2325 37.1872 32.3184C37.6884 31.3937 38.1644 30.4742 38.6143 29.5548ZM35.3663 31.2023C34.5976 32.6213 33.8079 33.9712 33.0061 35.2467C31.546 35.3583 30.0378 35.4115 28.5003 35.4115C26.969 35.4115 25.4796 35.3637 24.0452 35.2627C23.2115 33.9712 22.4045 32.616 21.6405 31.2183C20.878 29.8205 20.1768 28.4121 19.541 27.0091C20.1768 25.606 20.8764 24.1977 21.6342 22.7999C22.3941 21.4022 23.1937 20.0522 24.0196 18.7714C25.4833 18.6545 26.9837 18.5907 28.5003 18.5907C30.0237 18.5907 31.5261 18.6545 32.9888 18.7714C33.8026 20.0469 34.597 21.3915 35.3595 22.7893C36.1314 24.203 36.84 25.606 37.481 26.9772C36.8421 28.375 36.1346 29.7886 35.3663 31.2023ZM39.7025 6.29797C41.3505 7.30243 41.991 11.3735 40.9562 16.7041C40.8897 17.0442 40.8153 17.3896 40.7347 17.7404C38.6933 17.2408 36.4766 16.8688 34.1561 16.6403C32.8039 14.5941 31.4025 12.7393 29.9964 11.129C30.3745 10.7464 30.7521 10.3743 31.1281 10.0288C34.7604 6.67531 38.156 5.35196 39.7025 6.29797Z" fill="white"/>
<path d="M28.5 22C30.9855 22 33 24.2406 33 27C33 29.7651 30.9855 32 28.5 32C26.0151 32 24 29.7651 24 27C24 24.2406 26.0151 22 28.5 22Z" fill="#53C1DE"/>
</svg>
