<svg width="80" height="56" viewBox="0 0 80 56" fill="none" xmlns="http://www.w3.org/2000/svg">
<path d="M47 56V54.4592C47 52.0052 46.0096 49.6498 44.2469 47.917C42.4843 46.179 40.0933 45.2036 37.6001 45.2036H9.3999C6.90668 45.2036 4.51573 46.179 2.75309 47.917C0.989918 49.6498 0 52.0052 0 54.4592V56H47ZM37.2085 32C39.0697 32.3217 41.3115 32.1971 40.9936 33.4111C40.243 36.2698 36.9138 35.2114 36.3261 35.2425C35.7389 35.2737 37.2085 32 37.2085 32Z" fill="#66757F"/>
<path d="M37.3439 32C39.9702 32.3869 40.9028 32.6484 38.9772 33.4902C37.8957 33.9661 35.8354 40.9519 34.3114 39.8904C32.7888 38.8237 37.3439 32 37.3439 32Z" fill="#292F33"/>
<path d="M9.94479 32C8.0205 32.2831 5.70276 32.1735 6.03137 33.2419C6.80741 35.7575 10.2495 34.8262 10.8566 34.8536C11.4642 34.8809 9.94479 32 9.94479 32Z" fill="#66757F"/>
<path d="M9.09876 32C6.03505 32.3869 4.94657 32.6484 7.19336 33.4902C8.45501 33.9661 10.8585 40.9519 12.6363 39.8904C14.4136 38.8237 9.09876 32 9.09876 32Z" fill="#292F33"/>
<path d="M29.2345 6.5413C26.1615 5.55259 18.9286 5.82085 17.1204 8.16115C12.4193 8.25055 6.90535 12.4841 6.18133 18.064C5.46575 23.586 7.06063 26.1525 7.62887 30.3072C8.27051 35.0141 10.9279 36.5182 13.0535 37.1493C16.1096 41.1725 19.3585 40.9989 24.8133 40.9989C35.4661 40.9989 40.5391 33.8992 40.988 21.8453C41.2584 14.5562 36.9623 9.02886 29.2345 6.5413Z" fill="#FFAC33"/>
<path d="M35.3603 22.1333C34.3447 20.7003 33.0461 19.5432 30.1973 19.1345C31.2654 19.6334 32.2889 21.3584 32.4231 22.3137C32.5562 23.269 32.6909 24.0386 31.8453 23.0886C28.4572 19.2619 24.7675 20.7693 21.1121 18.434C18.5586 16.8046 17.7812 15 17.7812 15C17.7812 15 17.4686 17.4096 13.5969 19.8617C12.4746 20.5729 11.1344 22.1545 10.3923 24.4951C9.85773 26.1775 10.0247 27.6743 10.0247 30.2378C10.0247 37.7107 16.0619 44 23.5126 44C30.9628 44 37 37.6576 37 30.2378C36.9938 25.5831 36.5179 23.768 35.3603 22.1333Z" fill="#FFDC5D"/>
<path d="M24.3316 34H21.6666C21.4898 34 21.3205 33.9113 21.1955 33.7515C21.07 33.5918 21 33.3787 21 33.1539V32.8462C21 32.3787 21.2981 32 21.6666 32H24.3316C24.6991 32 25 32.3787 25 32.8462V33.1539C25 33.2604 24.9827 33.3728 24.9492 33.4734C24.9156 33.5799 24.8661 33.6746 24.8041 33.7515C24.742 33.8284 24.6683 33.8935 24.5872 33.9349C24.506 33.9763 24.4193 34 24.3316 34Z" fill="#C1694F"/>
<path fill-rule="evenodd" clip-rule="evenodd" d="M7.17475 22.9272C7.40801 23.1564 8.57431 23.8442 8.80704 24.5319C9.0403 25.2144 9.50844 29.1062 10.9075 30.2472C12.3511 31.4298 17.7935 30.987 18.8368 30.4816C21.1689 29.3354 21.4557 26.147 21.8681 24.5319C22.1014 23.6149 23.5004 23.6149 23.5004 23.6149C23.5004 23.6149 24.9 23.6149 25.1333 24.5319C25.5457 26.147 25.8325 29.3354 28.1646 30.4764C29.2079 30.987 34.6503 31.4298 36.0966 30.2524C37.4945 29.1062 37.9611 25.2196 38.1938 24.5319C38.4239 23.8442 39.5934 23.1564 39.8251 22.9272C40.0583 22.6979 40.0583 21.7862 39.8251 21.5569C39.3585 21.0985 33.8562 20.6921 27.9314 21.3277C26.7497 21.4528 26.3006 21.781 23.5004 21.781C20.7023 21.781 20.2517 21.4528 19.07 21.3277C13.1468 20.6921 7.64286 21.0985 7.17634 21.5569C6.94148 21.7862 6.94149 22.7031 7.17475 22.9272Z" fill="#292F33"/>
<path d="M7.6124 12.8804C7.6124 12.8804 9.74126 -0.775889 16.9053 0.0347094C22.4069 0.659438 24.5658 1.29968 29.1762 0.184458C32.2264 -0.559021 35.5443 1.92441 37.5451 6.90159C38.3442 8.92034 38.9851 10.9907 39.4626 13.1024C39.4626 13.1024 45.6321 12.5138 45.9873 15.7614C46.3447 19.009 39.1664 23 21.0961 23C10.9678 22.9948 0.518468 19.3807 0.0219615 16.35C-0.474545 13.3244 7.6124 12.8804 7.6124 12.8804Z" fill="#66757F"/>
<path d="M7.67043 10.7504C7.67043 10.7504 7.25025 12.4837 7.03859 13.6885C6.8264 14.8986 7.39014 15.7229 11.2504 16.5526C16.3691 17.6517 27.8801 17.6411 34.6989 15.9554C37.438 15.2738 39.1931 14.8246 38.983 13.4665C38.7226 11.7914 38.6776 11.7914 38.1406 10C38.1406 10 35.8405 10.7874 32.8039 11.5061C28.6618 12.489 17.288 12.9381 11.811 11.7333C8.89274 11.0886 7.67043 10.7504 7.67043 10.7504ZM7.45877 32.6644C6.90761 32.8917 12.0074 34.8311 19.1065 34.9579C26.5363 35.09 28.8142 35.5708 27.1199 37.246C25.3354 39.0162 25.7933 41.7905 25.9196 42.6148C26.0454 43.4392 29.1071 45.6269 29.3576 46.6362C29.6085 47.6508 27.4442 56 27.4442 56L13.8511 55.6037C9.85675 41.7112 9.36165 42.2502 7.45877 34.2339C7.08364 32.6539 7.45877 32.6644 7.45877 32.6644Z" fill="#292F33"/>
<path d="M6.16652 33C5.61754 33.2292 10.6972 35.1355 17.7681 35.2605C25.1684 35.3907 27.4374 35.8646 25.7497 37.5156C23.9723 39.2604 24.7202 42 24.8454 42.8073C24.9712 43.6198 27.7291 45.7761 27.9801 46.7761C28.2285 47.7709 26.0707 56 26.0707 56L12.532 55.6094C8.55344 41.9167 8.0603 42.4479 6.16496 34.5521C5.79289 32.9896 6.16652 33 6.16652 33Z" fill="#66757F"/>
<path d="M38.8339 33C39.383 33.224 34.3026 35.1355 27.2321 35.2605C19.8307 35.3907 17.5614 35.8646 19.2493 37.5156C21.027 39.2604 23.8657 41.9948 23.7415 42.8073C23.6157 43.6146 17.2697 45.7761 17.0202 46.7709C16.7702 47.7709 18.9263 56 18.9263 56L32.4675 55.6094C36.4466 41.9167 36.9399 42.4479 38.8339 34.5521C39.2076 32.9896 38.8339 33 38.8339 33Z" fill="#292F33"/>
<path d="M39.8335 33C40.3825 33.2238 35.3023 35.134 28.2321 35.2589C20.8311 35.389 18.5618 35.8627 20.2497 37.5126C22.0273 39.2562 24.8674 41.9887 24.7417 42.8007C24.6159 43.6074 18.2701 45.7674 18.0201 46.7615C17.7706 47.7608 19.9266 55.9844 19.9266 55.9844L33.3556 56C37.3346 42.3166 37.9395 42.4415 39.835 34.551C40.2071 32.9896 39.8335 33 39.8335 33Z" fill="#66757F"/>
<mask id="mask0_217_10" style="mask-type:luminance" maskUnits="userSpaceOnUse" x="42" y="15" width="38" height="38">
<path d="M42.301 20.7504L74.3418 15.668L79.4189 47.7424L47.3782 52.8249L42.301 20.7504Z" fill="white"/>
</mask>
<g mask="url(#mask0_217_10)">
<path d="M50.3713 32.8273C50.826 35.7029 52.1791 38.2118 54.0909 40.1184L47.4249 49.3108C46.7667 50.2169 46.9676 51.4898 47.8739 52.1497C48.7801 52.8097 50.0505 52.6054 50.7087 51.6993L57.3753 42.5068C59.7774 43.743 62.5778 44.251 65.4503 43.7953C72.6406 42.6535 77.5433 35.8967 76.4043 28.6999C75.2646 21.4979 68.5155 16.59 61.3252 17.7318C54.1349 18.8737 49.2317 25.6305 50.3713 32.8273ZM64.8157 39.7832C63.6321 39.9718 62.4235 39.9246 61.2582 39.647C60.0935 39.3642 58.9947 38.8561 58.0251 38.1542C57.0561 37.4471 56.2346 36.5567 55.6083 35.5353C54.9825 34.5139 54.5634 33.3773 54.3761 32.1936C54.1888 31.0098 54.2359 29.7998 54.5158 28.6318C54.7952 27.4638 55.3017 26.3638 56.006 25.3948C56.7102 24.4258 57.5982 23.6035 58.6201 22.9749C59.6414 22.3516 60.7763 21.9274 61.9599 21.744C63.1429 21.5555 64.3521 21.6026 65.5168 21.8802C66.682 22.1631 67.7808 22.6711 68.7499 23.373C69.7194 24.0801 70.5404 24.9653 71.1667 25.9919C71.793 27.0133 72.2116 28.1499 72.3989 29.3337C72.5868 30.5174 72.5391 31.7274 72.2597 32.8954C71.9798 34.0635 71.4738 35.1581 70.7696 36.1324C70.0653 37.1014 69.1768 37.9237 68.1555 38.5522C67.1336 39.1756 65.9987 39.5946 64.8157 39.7832Z" fill="#66757F"/>
</g>
<path d="M66 24.1931C63.0547 23.5779 56.9313 24.0821 56 31" stroke="#4D575D" stroke-opacity="0.6" stroke-width="2" stroke-linecap="round"/>
</svg>
