<svg width="78" height="49" viewBox="0 0 78 49" fill="none" xmlns="http://www.w3.org/2000/svg">
<path fill-rule="evenodd" clip-rule="evenodd" d="M39 3C29.3988 3 23.4012 7.77688 21.0003 17.3335C24.5999 12.5572 28.8014 10.7655 33.6003 11.9585C36.3399 12.6397 38.2979 14.6187 40.4619 16.8075C43.9934 20.3726 48.0794 24.5003 57.0003 24.5003C66.6009 24.5003 72.5985 19.7234 75 10.1668C71.3998 14.9436 67.2023 16.7353 62.4 15.5418C59.6604 14.8606 57.7018 12.8815 55.5349 10.6933C52.0069 7.12427 47.9243 3 39 3ZM21.0003 24.5003C11.3991 24.5003 5.40145 29.2766 3 38.8338C6.60017 34.0535 10.8017 32.2652 15.6 33.4587C18.3396 34.14 20.2982 36.119 22.4657 38.3072C25.9932 41.8723 30.0791 46 39.0034 46C48.6046 46 54.6023 41.2237 57.0037 31.667C53.4036 36.4434 49.2026 38.235 44.4037 37.0421C41.6641 36.3608 39.7055 34.3812 37.5421 32.193C34.0072 28.628 29.9212 24.5003 21.0003 24.5003Z" fill="#38BDF8" stroke="#38BDF8" stroke-width="5"/>
</svg>
