<svg width="24" height="21" viewBox="0 0 24 21" fill="none" xmlns="http://www.w3.org/2000/svg">
<path d="M9.1125 5.8125C9.00434 7.19116 8.91701 8.58524 8.80694 9.97148C8.69095 11.4324 7.875 12.7317 7.875 14.2" stroke="black" stroke-width="0.5" stroke-linecap="round"/>
<path d="M8.69877 5.78314C8.81568 5.3148 10.4763 6.00268 10.7217 6.11263C12.587 6.94841 11.5881 9.37663 10.0707 10.0385C8.11456 10.8916 5.69409 11.0581 3.60303 10.7746C2.76836 10.6614 0.346905 9.90987 1.16716 10.1016C3.22523 10.5825 4.9303 12.1534 6.64088 13.2983C8.06495 14.2515 9.54977 15.0878 11.0087 15.9833C12.0152 16.6012 13.0924 17.2481 13.8085 18.2196C14.5781 19.2638 14.3185 19.8704 13.0666 19.9442C11.9485 20.0101 9.57836 20.1046 9.20975 18.6473C8.66022 16.4747 11.5851 14.5817 13.0316 13.6068C15.8351 11.7171 18.9295 10.7559 22.1311 9.80011C22.4085 9.7173 23.4751 9.50743 22.7541 9.13412C21.7326 8.60529 20.5711 8.25679 19.5132 7.82317C17.2288 6.88678 14.9863 5.85626 12.7166 4.88581C9.61068 3.55786 6.21198 2.73195 3.22505 1.15626C2.44637 0.745486 3.00027 1.24671 3.28105 1.49276" stroke="black" stroke-width="0.5" stroke-linecap="round"/>
</svg>
